<svg height="512" viewBox="0 0 512 512" width="512" xmlns="http://www.w3.org/2000/svg"><path d="M488 416h-56v-32a8 8 0 00-8-8H264v-48h-16v48H88a8 8 0 00-8 8v32H24a8 8 0 00-8 8v64a8 8 0 008 8h128a8 8 0 008-8v-64a8 8 0 00-8-8H96v-24h152v24h-56a8 8 0 00-8 8v64a8 8 0 008 8h128a8 8 0 008-8v-64a8 8 0 00-8-8h-56v-24h152v24h-56a8 8 0 00-8 8v64a8 8 0 008 8h128a8 8 0 008-8v-64a8 8 0 00-8-8zm-344 64H32v-48h112zm168 0H200v-48h112zm168 0H368v-48h112z"/><path d="M48 448h16v16H48zm32 0h48v16H80zm136 0h16v16h-16zm32 0h48v16h-48zm136 0h16v16h-16zm32 0h48v16h-48zm-56-128V48a32.036 32.036 0 00-32-32H184a32.036 32.036 0 00-32 32v272a32.036 32.036 0 0032 32h48v-16h-48a16.019 16.019 0 01-16-16V48a16.019 16.019 0 0116-16h144a16.019 16.019 0 0116 16v272a16.019 16.019 0 01-16 16h-48v16h48a32.036 32.036 0 0032-32z"/><path d="M232 48h16v16h-16zm32 0h16v16h-16zm-64 88v16h16.805a39.764 39.764 0 005.839 14.042l-11.9 11.9 11.314 11.315 11.9-11.9A39.774 39.774 0 00248 183.2V200h16v-16.8a39.774 39.774 0 0014.042-5.839l11.9 11.9 11.314-11.315-11.9-11.9A39.764 39.764 0 00295.2 152H312v-16h-16.8a39.764 39.764 0 00-5.839-14.042l11.9-11.9-11.32-11.313-11.9 11.9a39.774 39.774 0 00-14.041-5.84V88h-16v16.805a39.774 39.774 0 00-14.042 5.839l-11.9-11.9-11.313 11.316 11.9 11.9a39.764 39.764 0 00-5.84 14.04zm56-16a24 24 0 11-24 24 24.028 24.028 0 0124-24zm-64 104h16v16h-16zm32 0h96v16h-96zm-32 32h128v16H192zm56 40h16v16h-16z"/></svg>