<svg xmlns="http://www.w3.org/2000/svg" width="512" height="512" viewBox="0 0 256 256"><path xmlns="http://www.w3.org/2000/svg" d="M238.192 194.552l-13.715-13.715a8.162 8.162 0 00-11.755 11.324H35.25a3.5 3.5 0 01-3.5-3.5V134.18a3.5 3.5 0 013.5-3.5h185.5a19.855 19.855 0 0019.833-19.833v-54.48a19.855 19.855 0 00-19.833-19.834H23.583a8.167 8.167 0 000 16.333H220.75a3.5 3.5 0 013.5 3.5v54.48a3.5 3.5 0 01-3.5 3.5H35.25a19.855 19.855 0 00-19.833 19.834v54.48a19.855 19.855 0 0019.833 19.834h177.471a8.162 8.162 0 0011.755 11.324l13.716-13.718a8.168 8.168 0 000-11.548z" data-original="#63bce7"/><path xmlns="http://www.w3.org/2000/svg" d="M230.583 56.367v54.48a19.856 19.856 0 01-19.833 19.833h10a19.856 19.856 0 0019.833-19.833v-54.48a19.856 19.856 0 00-19.833-19.834h-10a19.856 19.856 0 0119.833 19.834zm7.609 138.185l-13.715-13.715a8.167 8.167 0 00-10.775-.674 8.262 8.262 0 01.775.674l13.715 13.715a8.168 8.168 0 010 11.55l-13.715 13.715a8.256 8.256 0 01-.775.674 8.155 8.155 0 0010.775-.674l13.715-13.717a8.168 8.168 0 000-11.548z" data-original="#63e2e7"/><path xmlns="http://www.w3.org/2000/svg" d="M25.417 188.66v-54.48a19.856 19.856 0 0119.833-19.833h-10a19.856 19.856 0 00-19.833 19.833v54.48a19.856 19.856 0 0019.833 19.834h10a19.856 19.856 0 01-19.833-19.834zm0-143.96a8.166 8.166 0 018.167-8.167h-10a8.167 8.167 0 000 16.333h10a8.166 8.166 0 01-8.167-8.166z" data-original="#6377e7"/><rect xmlns="http://www.w3.org/2000/svg" fill="#fff" height="44.874" rx="4.919" width="131.601" x="62.2" y="177.89" data-original="#9e9e9e"/><rect xmlns="http://www.w3.org/2000/svg" fill="#fff" height="44.874" rx="4.919" width="131.601" x="62.2" y="100.076" data-original="#9e9e9e"/><rect xmlns="http://www.w3.org/2000/svg" height="9.664" rx="2.415" width="69.797" x="75.806" y="117.681" data-original="#f8af23"/><rect xmlns="http://www.w3.org/2000/svg" height="9.664" rx="2.415" width="9.664" x="166.184" y="117.681" data-original="#f8af23"/><rect xmlns="http://www.w3.org/2000/svg" fill="#fff" height="44.874" rx="4.919" width="131.601" x="62.2" y="22.263" data-original="#9e9e9e"/><path xmlns="http://www.w3.org/2000/svg" d="M72.2 62.218V27.182a4.919 4.919 0 014.919-4.919h-10a4.919 4.919 0 00-4.919 4.919v35.036a4.919 4.919 0 004.919 4.919h10a4.919 4.919 0 01-4.919-4.919zm0 77.814V105a4.919 4.919 0 014.919-4.919h-10A4.919 4.919 0 0062.2 105v35.037a4.919 4.919 0 004.919 4.919h10a4.919 4.919 0 01-4.919-4.924z" fill="#fff" data-original="#707070"/><path xmlns="http://www.w3.org/2000/svg" d="M183.8 62.218V27.182a4.919 4.919 0 00-4.919-4.919h10a4.919 4.919 0 014.919 4.919v35.036a4.919 4.919 0 01-4.919 4.919h-10a4.919 4.919 0 004.919-4.919zm0 77.814V105a4.919 4.919 0 00-4.919-4.919h10A4.919 4.919 0 01193.8 105v35.037a4.919 4.919 0 01-4.919 4.919h-10a4.919 4.919 0 004.919-4.924z" fill="#fff" data-original="#cecece"/><path xmlns="http://www.w3.org/2000/svg" d="M72.2 217.845v-35.036a4.919 4.919 0 014.919-4.919h-10a4.919 4.919 0 00-4.919 4.919v35.037a4.919 4.919 0 004.919 4.919h10a4.919 4.919 0 01-4.919-4.92z" fill="#fff" data-original="#707070"/><path xmlns="http://www.w3.org/2000/svg" d="M183.8 217.845v-35.036a4.919 4.919 0 00-4.919-4.919h10a4.919 4.919 0 014.919 4.919v35.037a4.919 4.919 0 01-4.919 4.919h-10a4.919 4.919 0 004.919-4.92z" fill="#fff" data-original="#cecece"/><rect xmlns="http://www.w3.org/2000/svg" height="9.664" rx="2.415" width="69.797" x="75.806" y="39.868" data-original="#f8af23"/><rect xmlns="http://www.w3.org/2000/svg" height="9.664" rx="2.415" width="9.664" x="166.184" y="39.868" data-original="#f8af23"/><rect xmlns="http://www.w3.org/2000/svg" height="9.664" rx="2.415" width="69.797" x="75.806" y="195.495" data-original="#f8af23"/><rect xmlns="http://www.w3.org/2000/svg" height="9.664" rx="2.415" width="9.664" x="166.184" y="195.495" data-original="#f8af23"/><g xmlns="http://www.w3.org/2000/svg"><path d="M27.323 232.237h-18a1.5 1.5 0 000 3h18a1.5 1.5 0 100-3zm219.357 0h-18a1.5 1.5 0 000 3h18a1.5 1.5 0 000-3zm-28.201 0H37.521a1.5 1.5 0 000 3h180.958a1.5 1.5 0 000-3zM9.32 224.265h237.36a1.5 1.5 0 000-3h-21.569c.143-.127.29-.25.427-.387l13.715-13.715a9.68 9.68 0 000-13.672l-13.715-13.715a9.666 9.666 0 00-15.613 10.884H195.3v-7.852a6.426 6.426 0 00-6.418-6.419H67.118a6.427 6.427 0 00-6.419 6.419v7.852H35.25a2 2 0 01-2-2v-54.479a2 2 0 012-2H60.7v7.852a6.426 6.426 0 006.419 6.418h121.763a6.425 6.425 0 006.418-6.418v-7.852h25.45a21.358 21.358 0 0021.333-21.334v-54.48a21.358 21.358 0 00-21.333-21.334H195.3v-7.851a6.426 6.426 0 00-6.418-6.419H67.118a6.427 6.427 0 00-6.418 6.419v7.852H23.583a9.667 9.667 0 000 19.334H60.7v7.852a6.426 6.426 0 006.419 6.418h121.763a6.425 6.425 0 006.418-6.418v-7.853h25.45a2 2 0 012 2v54.479a2 2 0 01-2 2H195.3V105a6.426 6.426 0 00-6.418-6.419H67.118A6.427 6.427 0 0060.7 105v7.852H35.25a21.358 21.358 0 00-21.333 21.334v54.474a21.358 21.358 0 0021.333 21.333H60.7v7.853a6.372 6.372 0 001 3.419H9.32a1.5 1.5 0 000 3zm184.984-3a6.373 6.373 0 001-3.419v-7.853h14.624a9.626 9.626 0 001.942 10.886c.136.136.283.259.426.386zm18.418-27.6a1.5 1.5 0 001.1-2.521 6.662 6.662 0 019.595-9.242l13.715 13.715a6.677 6.677 0 010 9.43l-13.715 13.715a6.662 6.662 0 01-9.595-9.243 1.5 1.5 0 00-1.1-2.521H195.3V193.66zM23.583 51.367a6.667 6.667 0 010-13.334H60.7v13.334zM192.3 62.219a3.422 3.422 0 01-3.418 3.418H67.118a3.423 3.423 0 01-3.418-3.418V27.182a3.423 3.423 0 013.419-3.419h121.763a3.423 3.423 0 013.418 3.419zm28.45 53.628a5.006 5.006 0 005-5v-54.48a5.006 5.006 0 00-5-5H195.3V38.033h25.45a18.355 18.355 0 0118.333 18.334v54.479a18.355 18.355 0 01-18.333 18.334H195.3v-13.333zM63.7 105a3.423 3.423 0 013.419-3.419h121.763A3.423 3.423 0 01192.3 105v35.037a3.422 3.422 0 01-3.418 3.418H67.118a3.423 3.423 0 01-3.419-3.418zM35.251 207a18.354 18.354 0 01-18.334-18.34v-54.479a18.355 18.355 0 0118.333-18.334H60.7v13.334H35.25a5.006 5.006 0 00-5 5v54.479a5.006 5.006 0 005 5H60.7v13.333zM63.7 217.846v-35.037a3.423 3.423 0 013.419-3.419h121.763a3.423 3.423 0 013.418 3.419v35.037a3.423 3.423 0 01-3.418 3.419H67.118a3.423 3.423 0 01-3.418-3.419z" data-original="#3f3679"/><path d="M78.221 128.846h64.968a3.919 3.919 0 003.914-3.915V120.1a3.919 3.919 0 00-3.914-3.915H78.221a3.919 3.919 0 00-3.915 3.915v4.834a3.919 3.919 0 003.915 3.912zm-.915-8.749a.927.927 0 01.915-.915h64.968a.927.927 0 01.914.915v4.834a.927.927 0 01-.914.915H78.221a.927.927 0 01-.915-.915zm91.294 8.749h4.834a3.919 3.919 0 003.915-3.915V120.1a3.919 3.919 0 00-3.915-3.915H168.6a3.919 3.919 0 00-3.915 3.915v4.834a3.919 3.919 0 003.915 3.912zm-.915-8.749a.927.927 0 01.915-.915h4.834a.927.927 0 01.915.915v4.834a.927.927 0 01-.915.915H168.6a.927.927 0 01-.915-.915zm-24.497-81.729H78.221a3.919 3.919 0 00-3.915 3.915v4.834a3.919 3.919 0 003.915 3.915h64.968a3.919 3.919 0 003.914-3.915v-4.834a3.919 3.919 0 00-3.915-3.915zm.914 8.749a.927.927 0 01-.914.915H78.221a.927.927 0 01-.915-.915v-4.834a.927.927 0 01.915-.915h64.968a.915.915 0 01.914.915zm29.332-8.749H168.6a3.919 3.919 0 00-3.915 3.915v4.834a3.919 3.919 0 003.915 3.915h4.834a3.919 3.919 0 003.915-3.915v-4.834a3.919 3.919 0 00-3.915-3.915zm.915 8.749a.927.927 0 01-.915.915H168.6a.927.927 0 01-.915-.915v-4.834a.916.916 0 01.915-.915h4.834a.927.927 0 01.915.915zM143.188 194H78.221a3.919 3.919 0 00-3.915 3.915v4.834a3.919 3.919 0 003.915 3.915h64.968a3.919 3.919 0 003.914-3.915v-4.839a3.919 3.919 0 00-3.915-3.91zm.914 8.749a.927.927 0 01-.914.915H78.221a.927.927 0 01-.915-.915v-4.839a.927.927 0 01.915-.915h64.968a.927.927 0 01.914.915zM173.434 194H168.6a3.919 3.919 0 00-3.915 3.915v4.834a3.919 3.919 0 003.915 3.915h4.834a3.919 3.919 0 003.915-3.915v-4.839a3.919 3.919 0 00-3.915-3.91zm.915 8.749a.927.927 0 01-.915.915H168.6a.927.927 0 01-.915-.915v-4.839a.927.927 0 01.915-.91h4.834a.927.927 0 01.915.915z" data-original="#3f3679"/></g></svg>