<svg height="512" viewBox="0 0 64 64" width="512" xmlns="http://www.w3.org/2000/svg"><path d="M14 42c-4.411 0-8 3.589-8 8s3.589 8 8 8 8-3.589 8-8-3.589-8-8-8zm0 14c-3.309 0-6-2.691-6-6s2.691-6 6-6 6 2.691 6 6-2.691 6-6 6z"/><path d="M14 46c-2.206 0-4 1.794-4 4s1.794 4 4 4 4-1.794 4-4-1.794-4-4-4zm0 6c-1.103 0-2-.897-2-2s.897-2 2-2 2 .897 2 2-.897 2-2 2z"/><path d="M63 1H25v8H14c-1.654 0-3 1.346-3 3v25h-.708l-.644 1.826c-.158.062-.315.127-.471.196l-1.749-.836-5.241 5.244.836 1.748c-.069.157-.135.314-.196.471L1 46.292v7.415l1.826.645c.062.157.127.314.196.471l-.835 1.747 5.242 5.244 1.749-.836c.155.069.313.134.471.196L10.292 63h7.416l.644-1.826c.158-.062.315-.127.471-.196l1.749.836L23.384 59H46c1.654 0 3-1.346 3-3v-3h14zM20.157 59.399l-1.335-.638-.436.214a9.742 9.742 0 01-1.146.477l-.458.157-.49 1.391h-4.584l-.491-1.392-.458-.157a9.742 9.742 0 01-1.146-.477l-.436-.214-1.335.638L4.6 56.156l.639-1.334-.214-.435a9.84 9.84 0 01-.477-1.146l-.156-.458L3 52.292v-4.585l1.393-.491.156-.458c.13-.38.29-.765.477-1.146l.214-.435-.639-1.334 3.242-3.242 1.335.638.436-.214a9.742 9.742 0 011.146-.477l.458-.157.49-1.391h4.584l.491 1.392.458.157c.385.132.771.292 1.146.477l.436.214 1.335-.638 3.242 3.242-.639 1.334.214.435c.187.381.347.766.477 1.146l.156.458 1.392.491v4.585l-1.393.491-.156.458c-.13.38-.29.765-.477 1.146l-.214.435.639 1.334zM47 56c0 .551-.448 1-1 1H25.384l.43-.43-.836-1.748c.069-.157.135-.314.196-.471L27 53.708v-7.415l-1.826-.645a13.424 13.424 0 00-.196-.471l.836-1.748-5.242-5.244-1.749.836a11.393 11.393 0 00-.471-.196L17.708 37H13V12c0-.551.448-1 1-1h28c.552 0 1 .449 1 1v14c0 .551-.448 1-1 1h-3v8h7c.552 0 1 .449 1 1zM42 9H31V7h26v16H45V12c0-1.654-1.346-3-3-3zm19 42H49V36c0-1.654-1.346-3-3-3h-5v-4h1c1.654 0 3-1.346 3-3v-1h14V5H29v4h-2V3h34z"/><path d="M43 53h2v2h-2zm-4 0h2v2h-2zm-4 0h2v2h-2zm0-4h10v2H35zm0-4h10v2H35zm6-32H15v12h26zm-2 10H17v-8h22zm8 4h12v2H47zm4 4h8v2h-8zm0 4h8v2h-8zm0 4h8v2h-8zm0 4h8v2h-8zm0 4h8v2h-8z"/></svg>