<svg xmlns="http://www.w3.org/2000/svg" height="1250" viewBox="0 0 937.5 937.5" width="1250"><path d="M875 0H187.5C152.984 0 125 27.984 125 62.5v250h31.25v-250c0-17.262 13.988-31.25 31.25-31.25H875c17.262 0 31.25 13.988 31.25 31.25V625c0 17.262-13.988 31.25-31.25 31.25H468.75v31.25H875c34.516 0 62.5-27.984 62.5-62.5V62.5C937.5 27.984 909.516 0 875 0zm0 0"/><path d="M187.5 62.5h31.25v31.25H187.5zm62.5 0h31.25v31.25H250zm62.5 0h31.25v31.25H312.5zm-125 62.5H875v31.25H187.5zm546.875 312.5H875v31.25H734.375zM562.5 515.625H875v31.25H562.5zm78.125-234.375H812.5v31.25H640.625zm0-78.125h125v31.25h-125zm156.25 0H875v31.25h-78.125zm46.875 78.125H875v31.25h-31.25zm-203.125 78.125H875v31.25H640.625zm-62.5 78.125h125v31.25h-125zm156.25 156.25H875V625H734.375zm-156.25 0h125V625h-125zM281.25 281.25V250c0-8.633 6.992-15.625 15.625-15.625h31.25v-31.25h-31.25C270.992 203.125 250 224.117 250 250v24.781l-26.672 26.672c-6.098 6.106-6.098 15.988 0 22.094L250 350.219V375c0 25.883 20.992 46.875 46.875 46.875h31.25v-31.25h-31.25c-8.633 0-15.625-6.992-15.625-15.625v-31.25c0-4.145-1.648-8.117-4.578-11.047L256.469 312.5l20.203-20.203a15.623 15.623 0 004.578-11.047zM562.5 375v-24.781l26.672-26.672c6.098-6.106 6.098-15.988 0-22.094L562.5 274.781V250c0-25.883-20.992-46.875-46.875-46.875h-31.25v31.25h31.25c8.633 0 15.625 6.992 15.625 15.625v31.25c0 4.145 1.648 8.117 4.578 11.047l20.203 20.203-20.203 20.203a15.623 15.623 0 00-4.578 11.047V375c0 8.633-6.992 15.625-15.625 15.625h-31.25v31.25h31.25c25.883 0 46.875-20.992 46.875-46.875zm-234.375-46.875h31.25v31.25h-31.25zm62.5 0h31.25v31.25h-31.25zm62.5 0h31.25v31.25h-31.25zm0 0"/><path d="M109.375 937.5h468.75c8.633 0 15.625-6.992 15.625-15.625v-187.5c0-8.633-6.992-15.625-15.625-15.625H373.437L518.188 574c6.102-6.102 6.102-15.992 0-22.094l-132.57-132.578c-6.21-5.86-15.898-5.86-22.097 0L218.75 564.063V359.375c0-8.633-6.992-15.625-15.625-15.625h-187.5C6.992 343.75 0 350.742 0 359.375v468.75C.07 888.5 49 937.43 109.375 937.5zM406.25 750H562.5v156.25H406.25zm-31.7-297.535l110.485 110.484-110.484 110.489-110.488-110.489zm-155.8 375.66V608.273l23.219-23.214L352.453 695.55 218.75 829.297v-1.172zM342.188 750H375v156.25H185.844c.285-.281.594-.516.875-.79zM31.25 375H187.5v156.25H31.25zm0 187.5H187.5v156.25H31.25zm0 187.5H187.5v78.125c-.059 30.852-18.258 58.766-46.453 71.266-.453.218-.871.535-1.344.718a78.81 78.81 0 01-11.945 3.723c-.926.227-1.82.656-2.766.836a78.11 78.11 0 01-65.031-16.035 78.14 78.14 0 01-28.711-60.508zm0 0"/><path d="M109.375 875c25.883 0 46.875-20.992 46.875-46.875s-20.992-46.875-46.875-46.875S62.5 802.242 62.5 828.125 83.492 875 109.375 875zm0-62.5c8.633 0 15.625 6.992 15.625 15.625s-6.992 15.625-15.625 15.625-15.625-6.992-15.625-15.625 6.992-15.625 15.625-15.625zm0 0"/></svg>